<svg aria-hidden="true" style="position:absolute;width:0;height:0;overflow:hidden" xmlns="http://www.w3.org/2000/svg"><defs><symbol id="icon-twitter_ic" viewBox="0 0 32 32"><path fill="#a4afc1" style="fill:var(--color1, #a4afc1)" d="M28.768 8.064c-.875.397-1.89.689-2.954.826l-.054.006a5.146 5.146 0 0 0 2.294-2.876l.01-.036a10.832 10.832 0 0 1-3.256 1.267l-.073.013a5.251 5.251 0 0 0-9.088 3.584c0 .416.032.8.128 1.184-4.352-.192-8.192-2.304-10.784-5.472-1.856 3.328.224 6.08 1.6 7.008-.832 0-1.664-.256-2.368-.64 0 2.592 1.824 4.736 4.192 5.216-.512.16-1.664.256-2.368.096.672 2.08 2.624 3.616 4.896 3.648-1.792 1.408-4.416 2.528-7.776 2.176a14.661 14.661 0 0 0 8.031 2.368h.034-.002c9.664 0 14.912-8 14.912-14.912 0-.224 0-.448-.032-.672 1.088-.8 1.984-1.728 2.656-2.784z"/></symbol><symbol id="icon-linkedin_ic" viewBox="0 0 32 32"><path fill="#a4afc1" style="fill:var(--color1, #a4afc1)" d="M28.8 28.8v-9.376c0-4.608-.992-8.128-6.368-8.128-2.592 0-4.32 1.408-5.024 2.752h-.064v-2.336h-5.088V28.8h5.312v-8.48c0-2.24.416-4.384 3.168-4.384 2.72 0 2.752 2.528 2.752 4.512v8.32H28.8v.032zM3.616 11.711h5.312V28.8H3.616V11.711zM6.272 3.2A3.074 3.074 0 0 0 3.2 6.272c0 1.696 1.376 3.104 3.072 3.104s3.072-1.408 3.072-3.104A3.074 3.074 0 0 0 6.272 3.2z"/></symbol><symbol id="icon-facebook_ic" viewBox="0 0 32 32"><path fill="#a4afc1" style="fill:var(--color1, #a4afc1)" d="M12.928 17.664H9.76c-.512 0-.672-.192-.672-.672V13.12c0-.512.192-.672.672-.672h3.168V9.632c0-1.28.224-2.496.864-3.616.672-1.152 1.632-1.92 2.848-2.368a6.98 6.98 0 0 1 2.399-.416h.069-.003 3.136c.448 0 .64.192.64.64V7.52c0 .448-.192.64-.64.64-.864 0-1.728 0-2.592.032-.864 0-1.312.416-1.312 1.312-.032.96 0 1.888 0 2.88h3.712c.512 0 .704.192.704.704v3.872c0 .512-.16.672-.704.672h-3.712v10.432c0 .544-.16.736-.736.736h-4c-.48 0-.672-.192-.672-.672V17.664z"/></symbol><symbol id="icon-not-all-about-work" viewBox="0 0 32 32"><path fill="#efefef" style="fill:var(--color2, #efefef)" d="M24.371 3.479C18.224 3.594 13.943.488 10.981.544S1.829 2.419 2.084 16.046c.255 13.627 8.662 15.47 11.92 15.41 15.256-.285 21.254-28.18 10.367-27.977z"/><path fill="#a4afc1" style="fill:var(--color1, #a4afc1)" d="M4.944 7.17h.889v1.777h-.889V7.17zm0 5.111h.889v1.778h-.889v-1.778zm-3.111-2.222h1.778v.889H1.833v-.889zm24.833 12.102a1.335 1.335 0 0 1-1.333-1.333 1.335 1.335 0 0 1 1.333-1.333A1.336 1.336 0 0 1 28 20.828a1.335 1.335 0 0 1-1.333 1.334zm0-1.778a.444.444 0 1 0 .001.89.444.444 0 1 0-.001-.89z"/><path fill="#2fdf84" style="fill:var(--color3, #2fdf84)" d="M21.218 13.219C21.294 10.828 26 6.045 26 6.045c-10 0-11.413 4.347-11.413 4.347-.834-2.174.543-3.478.543-3.478s-3.438.027-5.652 2.227C7.232 11.37 8.174 14.74 8.174 14.74s1.131 3.405 4.734 5.106c4.585 2.163 8.744.547 8.744.547C25.565 18.654 26 12.132 26 12.132c-1.34 1.304-4.781 1.087-4.781 1.087z"/><path fill="#00b871" style="fill:var(--color4, #00b871)" d="M16.809 10.614s1.186-3.568 8.868-4.232c.197-.209.323-.338.323-.338-4.294 0-6.995.803-8.687 1.718a1.402 1.402 0 0 0-.738 1.022c-.074.508-.038 1.123.233 1.83zm7.858 2.821A1.414 1.414 0 0 0 26 12.131c-.589.573-1.585.852-2.515.986-.02.11-.042.223-.046.324.001 0 .517.031 1.227-.005zm-9.536 6.634c-3.293-1.555-4.522-4.534-4.708-5.034a1.204 1.204 0 0 1-.044-.139l-.002-.008c-.122-.509-.726-3.491 1.323-5.524.741-.735 1.617-1.225 2.456-1.554.294-.118.535-.314.705-.563l.003-.005c.146-.214.265-.326.265-.326s-3.438.027-5.652 2.226c-2.049 2.033-1.445 5.014-1.323 5.524.013.054.026.096.045.148.187.501 1.414 3.479 4.708 5.034a11.773 11.773 0 0 0 4.988 1.122 11.597 11.597 0 0 1-2.834-.931l.07.03z"/><path fill="#f3f3f1" style="fill:var(--color5, #f3f3f1)" d="m13.391 23.519-4.568 2.526.873-5.349L6 16.908l5.107-.78 2.284-4.866 2.284 4.866 5.107.78-3.695 3.788.872 5.349-4.568-2.526z"/><path fill="#d5dbe1" style="fill:var(--color6, #d5dbe1)" d="m13.107 15.461 1.127-2.402-.844-1.796-2.101 4.476 1.818-.277zm2.284 7.391-1.603.886 4.171 2.306-.317-1.948-2.251-1.244zm-4.489 2.043.794-4.866-3.389-3.474L6 16.908l3.696 3.788-.873 5.348 2.079-1.149z"/><path style="fill:var(--color7, #000)" d="M17.959 26.711a.662.662 0 0 1-.323-.084l-4.245-2.346-4.245 2.346a.662.662 0 0 1-.709-.04l.002.001a.666.666 0 0 1-.273-.656l-.001.004.818-5.016-3.46-3.547a.665.665 0 0 1 .372-1.124h.004l4.756-.727 2.133-4.544a.668.668 0 0 1 1.206-.004l.002.004 2.132 4.544 4.756.727a.667.667 0 0 1 .377 1.124l-3.46 3.547.818 5.016a.667.667 0 0 1-.656.774zM7.383 17.372l2.789 2.859a.663.663 0 0 1 .181.573l-.651 3.993 3.367-1.861a.662.662 0 0 1 .649.002l-.003-.002 3.366 1.861-.652-3.993a.67.67 0 0 1 .181-.574l2.789-2.859-3.825-.585a.668.668 0 0 1-.5-.371l-.002-.004-1.681-3.581-1.681 3.581a.667.667 0 0 1-.498.375h-.004l-3.826.585z"/><path style="fill:var(--color7, #000)" d="m21.924 21.002-.541-1.218c2.485-1.104 3.433-4.497 3.774-6.389-1.627.611-3.687.508-3.98.489a.667.667 0 0 1-.624-.665v-.022.001c.059-1.882 2.417-4.807 3.88-6.447-7.862.404-9.198 3.813-9.21 3.849a.667.667 0 0 1-.616.46h-.001a.647.647 0 0 1-.64-.428c-.462-1.204-.348-2.19-.091-2.904-1.111.205-2.731.7-3.926 1.886-1.934 1.919-1.139 4.918-1.132 4.949l-1.284.357c-.043-.153-1.019-3.775 1.476-6.252 2.38-2.363 5.966-2.419 6.117-2.421.266.018.521.163.624.418a.665.665 0 0 1-.16.733c-.024.024-.45.457-.571 1.222C16.4 7.215 19.458 5.378 26 5.378h.001a.666.666 0 0 1 .474 1.134c-1.526 1.552-3.849 4.338-4.447 6.053 1.114-.022 2.786-.21 3.506-.911a.661.661 0 0 1 .748-.125l-.004-.002a.668.668 0 0 1 .385.651v-.002c-.018.283-.51 6.945-4.741 8.826z"/></symbol><symbol id="icon-working-remotely" viewBox="0 0 32 32"><path fill="#efefef" style="fill:var(--color2, #efefef)" d="M7.446 3.704c6.149 0 10.371-3.185 13.333-3.185s9.185 1.703 9.185 15.332c0 13.63-8.371 15.63-11.629 15.63C3.075 31.482-3.443 3.704 7.446 3.704z"/><path fill="#a4afc1" style="fill:var(--color1, #a4afc1)" d="M25.333 11.778A1.335 1.335 0 0 1 24 10.445a1.335 1.335 0 0 1 1.333-1.333 1.335 1.335 0 0 1 1.334 1.333 1.335 1.335 0 0 1-1.333 1.333zm0-1.778c-.244 0-.444.2-.444.444a.446.446 0 0 0 .889 0c0-.244-.2-.444-.445-.444z"/><path fill="#f3f3f1" style="fill:var(--color5, #f3f3f1)" d="m23.191 14.124-2.524-2.409V6.888H18v2.284l-3.333-3.173-8.524 8.124a.43.43 0 0 0-.142.32v.005c0 .243.197.44.44.44h2.227v6.222c0 .736.597 1.333 1.333 1.334h9.778a.889.889 0 0 0 .889-.889v-6.666h2.226a.44.44 0 0 0 .44-.44v-.005a.43.43 0 0 0-.142-.32z"/><path fill="#2fdf84" style="fill:var(--color3, #2fdf84)" d="M18 26h-.445a.889.889 0 0 1-.889-.889v-4a.89.89 0 0 1 .889-.889H18c.491 0 .889.398.889.889v4c0 .489-.4.889-.889.889z"/><path fill="#2fdf84" style="fill:var(--color3, #2fdf84)" d="M18.862 20.524c.498-.311 1.751-1.209 1.751-2.373 0-1.04.436-1.467.845-1.467.418 0 1.04.631 1.04 1.875 0 1.04-.418 1.662-.418 1.662h2.222c.951 0 1.698.782 1.698 1.698 0 .24-.489 2.658-.498 2.658-.133.818-.889 1.422-1.724 1.422h-.453c-2.382 0-3.715-.613-4.213-.898l-.223.009-.026-4.587z"/><path fill="#d5dbe1" style="fill:var(--color6, #d5dbe1)" d="M20 9.173V6.889h-2v.38l2 1.904zm-9.333 11.938v-6.223h-2v6.223c0 .736.597 1.333 1.333 1.333h2a1.333 1.333 0 0 1-1.333-1.333zM8 14.444a.43.43 0 0 1 .142-.32l7.525-7.171L14.666 6l-8.524 8.124a.429.429 0 0 0-.142.32v.005c0 .243.197.44.44.44h2.005-.005a.44.44 0 0 1-.44-.44v-.005z"/><path fill="#00b871" style="fill:var(--color4, #00b871)" d="m21.111 25.102-.223.009-.026-4.587c.406-.254 1.305-.901 1.626-1.762.003-.067.01-.131.01-.202 0-1.244-.622-1.875-1.04-1.875-.409 0-.845.427-.845 1.467 0 1.164-1.253 2.062-1.751 2.373l.027 4.587.222-.009c.497.285 1.831.898 4.213.898h.453c.142 0 .277-.023.412-.055-1.674-.153-2.666-.608-3.078-.843z"/><path style="fill:var(--color7, #000)" d="M18 26.667h-.445a1.558 1.558 0 0 1-1.556-1.556v-4a1.556 1.556 0 0 1 1.555-1.555h.445a1.556 1.556 0 0 1 1.555 1.555v4a1.558 1.558 0 0 1-1.555 1.556zm-.445-5.778c-.123 0-.222.1-.222.223v4c0 .123.1.222.223.222H18a.224.224 0 0 0 .222-.222v-4c0-.123-.1-.222-.222-.222h-.445z"/><path style="fill:var(--color7, #000)" d="M23.778 26.667h-.453c-2.452 0-3.9-.617-4.544-.985l.661-1.158c.426.244 1.659.81 3.883.81h.453c.519 0 .988-.38 1.067-.863a.57.57 0 0 1 .017-.074c.064-.276.453-2.238.473-2.5-.001-.544-.464-1.007-1.032-1.007H22.08a.666.666 0 0 1-.551-1.04l-.002.002c.137-.206.305-.49.305-1.291 0-.797-.314-1.171-.427-1.216.038.025-.124.23-.124.807 0 1.49-1.444 2.551-2.066 2.94l-.705-1.131c.695-.433 1.438-1.135 1.438-1.807 0-1.474.759-2.133 1.51-2.133.838 0 1.707.951 1.707 2.542 0 .38-.047.714-.114.995h1.252a2.367 2.367 0 0 1 2.364 2.364c0 .082 0 .22-.258 1.546-.11.566-.185.953-.259 1.218l.012.002c-.185 1.129-1.21 1.98-2.383 1.98z"/><path style="fill:var(--color7, #000)" d="M13.556 23.111H10c-1.102 0-2-.898-2-2v-5.556H6.444a1.113 1.113 0 0 1-1.111-1.111c0-.31.132-.608.362-.815l8.511-8.112a.665.665 0 0 1 .92.001l2.207 2.1v-.729c0-.368.299-.666.667-.666h2.667c.368 0 .666.299.666.666v4.541l2.317 2.211-.92.966-2.524-2.409a.667.667 0 0 1-.206-.482v-4.16h-1.333v1.618a.667.667 0 0 1-1.127.482l-2.874-2.735-7.66 7.302h1.66c.368 0 .666.299.666.666v6.223a.668.668 0 0 0 .667.666h3.556v1.333zm-6.947-8.51z"/></symbol><symbol id="icon-stim-proj" viewBox="0 0 32 32"><path fill="#efefef" style="fill:var(--color2, #efefef)" d="M10.251 30.935c5.907-1.706 10.847.183 13.693-.639s8.352-4.185 4.571-17.28C24.733-.079 16.138.323 13.007 1.227-1.654 5.461-.21 33.957 10.252 30.935z"/><path fill="#a4afc1" style="fill:var(--color1, #a4afc1)" d="M7.974 5.697 9.231 4.44l.629.628-1.257 1.257-.628-.628zM4.36 9.31l1.257-1.257.628.629-1.257 1.257-.628-.629zm.001-4.399.628-.628L6.246 5.54l-.629.628L4.36 4.911zm22.528 24.575a1.336 1.336 0 0 1-1.334-1.333 1.335 1.335 0 0 1 1.333-1.334 1.335 1.335 0 0 1 1.333 1.333 1.335 1.335 0 0 1-1.333 1.333zm0-1.777a.445.445 0 1 0 .444.445c0-.244-.2-.445-.444-.445z"/><path fill="#f3f3f1" style="fill:var(--color5, #f3f3f1)" d="M16 8.222A1.111 1.111 0 0 0 16 6a1.111 1.111 0 0 0 0 2.222zm6.285 2.604a1.111 1.111 0 0 0 0-2.222 1.111 1.111 0 0 0 0 2.222z"/><path fill="#2fdf84" style="fill:var(--color3, #2fdf84)" d="M21.342 10.658z"/><path fill="#f3f3f1" style="fill:var(--color5, #f3f3f1)" d="M24.889 17.111a1.111 1.111 0 0 0 0-2.222 1.111 1.111 0 0 0 0 2.222zm-2.604 6.285a1.111 1.111 0 0 0 0-2.222 1.111 1.111 0 0 0 0 2.222z"/><path fill="#2fdf84" style="fill:var(--color3, #2fdf84)" d="M21.342 21.342z"/><path fill="#f3f3f1" style="fill:var(--color5, #f3f3f1)" d="M16 26a1.111 1.111 0 0 0 0-2.222A1.111 1.111 0 0 0 16 26zm-6.286-2.604a1.111 1.111 0 0 0 0-2.222 1.111 1.111 0 0 0 0 2.222z"/><path fill="#2fdf84" style="fill:var(--color3, #2fdf84)" d="M11.467 20.533z"/><path fill="#f3f3f1" style="fill:var(--color5, #f3f3f1)" d="M7.111 17.111a1.111 1.111 0 0 0 0-2.222 1.111 1.111 0 0 0 0 2.222zm2.603-6.285a1.111 1.111 0 0 0 0-2.222 1.111 1.111 0 0 0 0 2.222z"/><path fill="#2fdf84" style="fill:var(--color3, #2fdf84)" d="M12.871 12.871zm3.141 5.61-2.331 1.297.436-2.732-1.895-1.927 2.609-.407 1.159-2.489 1.176 2.481 2.611.389-1.883 1.94.456 2.729-2.34-1.281z"/><path fill="#00b871" style="fill:var(--color4, #00b871)" d="m15.632 18.692.263-1.646L14 15.119l2.609-.407.278-.598-.897-1.891-1.159 2.489-2.609.407 1.895 1.927-.436 2.733 1.951-1.086z"/><path style="fill:var(--color7, #000)" d="M16 8.889a1.78 1.78 0 0 1-1.778-1.778A1.78 1.78 0 0 1 16 5.333a1.78 1.78 0 0 1 1.778 1.777A1.78 1.78 0 0 1 16 8.888zm0-2.222a.445.445 0 0 0 0 .889c.244 0 .445-.2.445-.444 0-.245-.2-.444-.445-.444z"/><path style="fill:var(--color7, #000)" d="M15.334 8.444h1.333v1.271h-1.334V8.444zm6.951 3.048a1.778 1.778 0 1 1 .002 0h-.002zm0-2.222a.444.444 0 0 0-.315.759.446.446 0 0 0 .628 0 .446.446 0 0 0 0-.628.444.444 0 0 0-.314-.13z"/><path style="fill:var(--color7, #000)" d="m18.672 12.383 2.195-2.195.943.943-2.195 2.195-.942-.943zm6.217 5.394A1.779 1.779 0 0 1 23.112 16a1.78 1.78 0 0 1 1.777-1.778 1.78 1.78 0 0 1 1.778 1.777 1.78 1.78 0 0 1-1.778 1.778zm0-2.221a.446.446 0 0 0 0 .889.445.445 0 0 0 0-.889z"/><path style="fill:var(--color7, #000)" d="M21.769 15.334h1.787v1.333h-1.787v-1.334zm.516 8.729a1.776 1.776 0 0 1-1.257-3.034c.692-.692 1.821-.692 2.514 0s.693 1.821 0 2.514c-.321.321-.764.52-1.253.52h-.004zm0-2.222a.445.445 0 0 0-.314.758.445.445 0 0 0 .628 0 .446.446 0 0 0 0-.628.444.444 0 0 0-.314-.13z"/><path style="fill:var(--color7, #000)" d="m20.102 21.049.943-.943.764.764-.943.943-.764-.764zM16 26.667a1.78 1.78 0 0 1-1.778-1.778A1.779 1.779 0 0 1 16 23.112a1.78 1.78 0 0 1 1.778 1.777A1.78 1.78 0 0 1 16 26.667zm0-2.223a.445.445 0 1 0 .002.888.445.445 0 0 0-.002-.887z"/><path style="fill:var(--color7, #000)" d="M15.334 20.889h1.333v2.666h-1.334v-2.666zm-5.619 3.174a1.776 1.776 0 0 1-1.257-3.034 1.778 1.778 0 1 1 1.259 3.034h-.002zm0-2.222a.446.446 0 0 0-.315.758.446.446 0 0 0 .628 0 .446.446 0 0 0 0-.628.444.444 0 0 0-.314-.13z"/><path style="fill:var(--color7, #000)" d="m10.183 20.869.809-.809.943.943-.809.809-.943-.943zm-3.072-3.092A1.78 1.78 0 0 1 5.333 16a1.78 1.78 0 0 1 1.777-1.778 1.78 1.78 0 0 1 1.778 1.777 1.78 1.78 0 0 1-1.778 1.778zm0-2.221a.445.445 0 0 0 0 .889.445.445 0 0 0 0-.889z"/><path style="fill:var(--color7, #000)" d="M8.444 15.334h1.76v1.333h-1.76v-1.334zm1.271-3.842c-.455 0-.91-.173-1.257-.52-.693-.693-.693-1.821 0-2.514s1.822-.692 2.514 0a1.778 1.778 0 0 1-1.256 3.034h-.001zm0-2.222a.446.446 0 0 0-.315.758.446.446 0 0 0 .628 0 .446.446 0 0 0 0-.628.444.444 0 0 0-.314-.13z"/><path style="fill:var(--color7, #000)" d="m10.184 11.129.943-.943 2.214 2.214-.943.943-2.214-2.214zm3.498 9.316a.667.667 0 0 1-.658-.776l-.001.004.383-2.4-1.659-1.686a.668.668 0 0 1 .369-1.127l.004-.001 2.258-.352 1.009-2.166a.668.668 0 0 1 .602-.386h.003c.258 0 .492.149.603.382l1.023 2.16 2.259.336a.668.668 0 0 1 .381 1.125l-1.648 1.699.4 2.398a.664.664 0 0 1-.27.651l-.002.001a.663.663 0 0 1-.711.04l.003.002-2.017-1.105-2.008 1.119a.652.652 0 0 1-.323.084h-.001zm-.073-4.869.984 1.001a.663.663 0 0 1 .183.573l-.22 1.378 1.13-.629a.663.663 0 0 1 .649-.001l-.003-.002 1.136.622-.23-1.376a.664.664 0 0 1 .18-.574l.977-1.009-1.327-.197a.669.669 0 0 1-.502-.37l-.002-.004-.568-1.199-.56 1.203a.668.668 0 0 1-.497.377l-.004.001-1.325.207z"/></symbol><symbol id="icon-Fav-work-proc" viewBox="0 0 32 32"><path fill="#efefef" style="fill:var(--color2, #efefef)" d="M7.446 28.296c6.149 0 10.371 3.185 13.333 3.185s9.185-1.703 9.185-15.332c0-13.629-8.371-15.63-11.63-15.63C3.075.519-3.443 28.297 7.445 28.297z"/><path fill="#a4afc1" style="fill:var(--color1, #a4afc1)" d="M6.556 3.778h.889v1.778h-.889V3.779zM3.667 6.444h1.778v.889H3.667v-.889z"/><path fill="#2fdf84" style="fill:var(--color3, #2fdf84)" d="M6 15.778v7.556h2.444l1.777-6.566s-1.296-.99-4.222-.99z"/><path fill="#2fdf84" style="fill:var(--color3, #2fdf84)" d="M23.778 20.445c-1.154 0-2.493.558-3.777.952v-.383a1.78 1.78 0 0 0-1.411-1.74l-.012-.002-8.56-1.751-1.325 4.818c1.698.8 6.071 2.773 8.196 2.773 2.666 0 9.111-3.556 9.111-3.556s-.445-1.111-2.222-1.111z"/><path fill="#f3f3f1" style="fill:var(--color5, #f3f3f1)" d="M26 16.111V8.555h-2.445l-1.777 6.565s1.296.99 4.222.99z"/><path fill="#f3f3f1" style="fill:var(--color5, #f3f3f1)" d="M8.222 11.444c1.154 0 2.493-.558 3.778-.952v.383c0 .856.605 1.571 1.411 1.74l.012.002 8.56 1.751 1.325-4.818c-1.698-.8-6.071-2.774-8.196-2.774-2.666 0-9.111 3.556-9.111 3.556s.444 1.111 2.222 1.111z"/><path fill="#00b871" style="fill:var(--color4, #00b871)" d="M6 15.778v7.556h2v-7.378a10.798 10.798 0 0 0-2-.178zm16 5.235v.383c.905-.277 1.835-.633 2.71-.82a3.201 3.201 0 0 0-.916-.132h-.017.001c-.564 0-1.174.134-1.8.317.012.082.022.166.022.251zm-11.307 1.325 1.218-4.43-1.893-.387-1.325 4.817c1.698.8 6.071 2.773 8.196 2.773.279 0 .607-.046.957-.116-2.285-.43-5.699-1.971-7.153-2.657z"/><path fill="#d5dbe1" style="fill:var(--color6, #d5dbe1)" d="m23.778 15.121 1.778-6.565h-2l-1.777 6.565s1.296.99 4.222.99v-.178c-1.519-.285-2.222-.813-2.222-.813zM8 10.334s5.158-2.843 8.154-3.439a5.832 5.832 0 0 0-1.043-.117C12.444 6.778 6 10.334 6 10.334s.444 1.111 2.222 1.111c.341 0 .7-.053 1.067-.132-.999-.29-1.29-.979-1.29-.979z"/><path fill="#d5dbe1" style="fill:var(--color6, #d5dbe1)" d="M15.422 12.618A1.782 1.782 0 0 1 14 10.876v-.383c-.656.201-1.325.444-1.978.634a1.778 1.778 0 0 0 1.4 1.491l8.56 1.751.107-.387-6.667-1.364z"/><path style="fill:var(--color7, #000)" d="M26 16.889c-3.116 0-4.567-1.082-4.627-1.128a.667.667 0 0 1-.238-.709l-.001.005 1.778-6.566a.669.669 0 0 1 .643-.492H26c.368 0 .667.299.667.667v7.556a.667.667 0 0 1-.667.667zm-3.445-1.981c.465.22 1.374.547 2.778.629V9.334h-1.267l-1.51 5.574z"/><path style="fill:var(--color7, #000)" d="M8.222 12.222c-2.204 0-2.816-1.467-2.841-1.531a.663.663 0 0 1 .294-.829l.003-.002c.269-.149 6.627-3.638 9.433-3.638 2.141 0 6.232 1.777 8.48 2.836l-.569 1.206c-3.652-1.722-6.537-2.709-7.911-2.709-1.803 0-5.895 1.947-8.039 3.07.247.142.615.263 1.15.263.78 0 1.745-.321 2.678-.633 1.034-.345 2.103-.7 3.099-.7 1.874 0 4.346.892 4.45.929l-.455 1.253c-.023-.009-2.357-.849-3.995-.849-.78 0-1.745.321-2.678.633-1.034.345-2.102.7-3.1.7z"/><path style="fill:var(--color7, #000)" d="m21.849 15.133-8.56-1.751a2.454 2.454 0 0 1-1.956-2.394v-.4h1.333v.4c.002.534.379.98.881 1.088l.007.001 8.56 1.751-.267 1.305zM8.444 24H6a.668.668 0 0 1-.667-.667v-7.556c0-.368.298-.666.666-.667 3.116 0 4.567 1.082 4.627 1.128.215.165.31.443.239.704l-1.777 6.566a.668.668 0 0 1-.643.491h-.001zm-1.777-1.333h1.268l1.509-5.574c-.465-.22-1.374-.547-2.777-.628v6.203h.001z"/><path style="fill:var(--color7, #000)" d="M16.889 25.778c-2.141 0-6.232-1.777-8.48-2.837l.569-1.206c3.653 1.723 6.537 2.71 7.911 2.71 1.803 0 5.895-1.947 8.039-3.07-.247-.142-.615-.263-1.15-.263-.781 0-1.745.321-2.678.633-1.034.345-2.103.7-3.099.7-1.874 0-4.346-.892-4.45-.929l.455-1.253c.023.009 2.358.849 3.995.849.78 0 1.745-.321 2.678-.633 1.034-.345 2.103-.701 3.099-.701 2.204 0 2.816 1.468 2.841 1.53a.663.663 0 0 1-.294.829l-.003.002c-.268.148-6.627 3.637-9.433 3.637z"/><path style="fill:var(--color7, #000)" d="M20.667 21.413h-1.334v-.4a1.118 1.118 0 0 0-.881-1.088l-.007-.001-2.419-.497.27-1.306 2.418.498a2.454 2.454 0 0 1 1.955 2.395v.401h-.001zM9.892 18.18l.267-1.308 4.409.9-.267 1.308-4.41-.9z"/></symbol><symbol id="icon-International-clients" viewBox="0 0 32 32"><path fill="#efefef" style="fill:var(--color2, #efefef)" d="M7.446 3.704c6.149 0 10.371-3.185 13.333-3.185s9.185 1.703 9.185 15.332c0 13.63-8.371 15.63-11.63 15.63C3.075 31.482-3.443 3.704 7.445 3.704z"/><path fill="#a4afc1" style="fill:var(--color1, #a4afc1)" d="m23.913 6.769.629-.628 1.257 1.257-.628.629-1.257-1.257zm3.614 3.614.628-.629 1.257 1.257-.628.629-1.257-1.257zm-.156-2.986 1.257-1.257.628.628-1.257 1.257-.628-.629z"/><path fill="#f3f3f1" style="fill:var(--color5, #f3f3f1)" d="M14.222 22.445c4.541 0 8.222-3.681 8.222-8.223S18.763 6 14.221 6a8.222 8.222 0 0 0 0 16.444z"/><path fill="#f3f3f1" style="fill:var(--color5, #f3f3f1)" d="M22.222 20.667a1.11 1.11 0 1 0 0-2.222 1.11 1.11 0 1 0 0 2.222z"/><path fill="#2fdf84" style="fill:var(--color3, #2fdf84)" d="M13.68 9.431v.774c0 1.36-.951 2.524-2.276 2.809-.515.107-.96.391-1.28.774-.32.391-.498.871-.507 1.404a2.14 2.14 0 0 1-.631 1.493 2.146 2.146 0 0 1-1.511.622h-.871a7.953 7.953 0 0 1-.605-3.067v-.018.001a8.228 8.228 0 0 1 6.098-7.947 3.95 3.95 0 0 1 1.582 3.155zm8.382 2.294-1.867.231c-.116.009-.222.018-.329.018a2.675 2.675 0 0 1-2.276-1.289 5.28 5.28 0 0 1-.533-4.187 8.264 8.264 0 0 1 5.005 5.227zM24.445 22.5v-1.111c0-.982-.796-1.777-1.777-1.777h-2.223c-.982 0-1.777.796-1.777 1.777V22.5h5.777z"/><path fill="#00b871" style="fill:var(--color4, #00b871)" d="M22.445 16.277c0-.169.044-.324.111-.467a1.106 1.106 0 0 0-2.111.468 1.106 1.106 0 0 0 2.111.468 1.096 1.096 0 0 1-.111-.468zm0 3.334h-2c-.982 0-1.777.796-1.777 1.777v1.111h2v-1.111c0-.982.796-1.777 1.777-1.777z"/><path style="fill:var(--color7, #000)" d="M21.555 18.055a1.779 1.779 0 0 1-1.777-1.777 1.78 1.78 0 0 1 1.777-1.778 1.78 1.78 0 0 1 1.778 1.778 1.78 1.78 0 0 1-1.777 1.778zm0-2.222h-.01a.445.445 0 1 0 0 .89h.011-.001a.445.445 0 0 0 0-.89h-.001zm3.556 6.667h-1.333v-1.111a1.113 1.113 0 0 0-1.111-1.111h-2.223a1.113 1.113 0 0 0-1.111 1.111V22.5H18v-1.111a2.447 2.447 0 0 1 2.445-2.445h2.222a2.447 2.447 0 0 1 2.444 2.445V22.5z"/><path fill="#d5dbe1" style="fill:var(--color6, #d5dbe1)" d="M8 14.222c0-4.202 3.154-7.661 7.222-8.155A8.01 8.01 0 0 0 14.225 6h-.003a8.222 8.222 0 1 0 0 16.444 8.286 8.286 0 0 0 1.042-.071l-.042.005C11.153 21.884 8 18.424 8 14.223z"/><path fill="#00b871" style="fill:var(--color4, #00b871)" d="M8 14.222a8.222 8.222 0 0 1 4.67-7.414 3.801 3.801 0 0 0-.572-.532A8.227 8.227 0 0 0 6 14.223c0 1.093.213 2.133.604 3.084h.871c.38 0 .726-.106 1.031-.276a7.928 7.928 0 0 1-.507-2.808zm11.591-3.538a5.27 5.27 0 0 1-.714-3.235 8.148 8.148 0 0 0-1.82-.952 5.284 5.284 0 0 0 .533 4.187 2.674 2.674 0 0 0 2.276 1.289c.107 0 .213-.009.329-.018l.897-.111a2.685 2.685 0 0 1-1.502-1.16z"/><path style="fill:var(--color7, #000)" d="M7.476 17.973h-.871V16.64h.871c.815 0 1.463-.641 1.476-1.46a2.906 2.906 0 0 1 2.317-2.821c1.2-.257 1.588-1.252 1.714-1.823.301-1.379-.239-2.947-1.284-3.728l.798-1.067c1.467 1.097 2.203 3.186 1.787 5.081-.329 1.503-1.327 2.54-2.74 2.842a1.58 1.58 0 0 0-1.259 1.537 2.824 2.824 0 0 1-2.809 2.771zm12.47-5.343c-1.091 0-2.006-.436-2.685-1.272-1.019-1.254-1.357-3.283-.843-5.048l1.279.373c-.385 1.32-.133 2.933.599 3.833.463.572 1.085.83 1.847.773l1.836-.227.163 1.322-1.867.231c-.11.01-.221.014-.33.014z"/><path style="fill:var(--color7, #000)" d="M14.222 23.111c-4.902 0-8.889-3.988-8.889-8.889s3.987-8.889 8.889-8.889a8.842 8.842 0 0 1 8.773 7.459l-1.316.211a7.518 7.518 0 0 0-7.458-6.337c-4.166 0-7.556 3.389-7.556 7.556s3.389 7.555 7.556 7.555h.013c.589 0 1.162-.069 1.711-.199l-.05.01.297 1.3a8.699 8.699 0 0 1-1.971.221z"/></symbol><symbol id="icon-Young-motivated-team" viewBox="0 0 32 32"><path fill="#efefef" style="fill:var(--color2, #efefef)" d="M3.704 7.446c0 6.148-3.185 10.37-3.185 13.333s1.703 9.185 15.332 9.185c13.63 0 15.63-8.37 15.63-11.629C31.482 3.076 3.704-3.442 3.704 7.446z"/><path fill="#a4afc1" style="fill:var(--color1, #a4afc1)" d="M28.445 4.889a1.336 1.336 0 0 1-1.334-1.333 1.335 1.335 0 0 1 1.333-1.333 1.335 1.335 0 0 1 1.333 1.333 1.335 1.335 0 0 1-1.333 1.333zm0-1.778a.445.445 0 0 0 0 .89.445.445 0 1 0 0-.89z"/><path fill="#f3f3f1" style="fill:var(--color5, #f3f3f1)" d="M23.111 19.778a1.11 1.11 0 1 0 0-2.222 1.111 1.111 0 0 0 0 2.222zm-14.222 0h.017a1.111 1.111 0 0 0 0-2.222h-.018.001a1.111 1.111 0 0 0 0 2.222zm7.111.444a2 2 0 1 0 0-4 2 2 0 1 0 0 4zm4.222 6.445v-2c0-.982-.796-1.777-1.777-1.777h-4.889c-.982 0-1.777.796-1.777 1.777v2h8.444zm-8.444-1.778v-1.111c0-.982-.796-1.777-1.777-1.777H7.779c-.982 0-1.777.796-1.777 1.777v1.111h5.778zM26 24.889v-1.111c0-.982-.796-1.777-1.777-1.777H22c-.982 0-1.777.796-1.777 1.777v1.111h5.778z"/><path fill="#2fdf84" style="fill:var(--color3, #2fdf84)" d="M21.555 15.333c.978 0 1.778-.8 1.778-1.777V6H8.667v7.556c0 .978.8 1.778 1.777 1.778h11.111z"/><path fill="#d5dbe1" style="fill:var(--color6, #d5dbe1)" d="M24 18.667c0-.169.044-.325.111-.468a1.108 1.108 0 0 0-1-.644 1.112 1.112 0 0 0 0 2.222c.445 0 .823-.266 1-.643a1.096 1.096 0 0 1-.111-.468zm-14.222 0c0-.169.043-.325.111-.468a1.108 1.108 0 0 0-1-.644 1.111 1.111 0 0 0 0 2.222c.444 0 .822-.266 1-.643a1.082 1.082 0 0 1-.111-.468zM16 18.222a1.99 1.99 0 0 1 1-1.723 1.977 1.977 0 0 0-1-.277 2 2 0 1 0 0 4c.366 0 .705-.105 1-.277a1.99 1.99 0 0 1-1-1.723zm-.444 4.667h-2c-.982 0-1.777.796-1.777 1.777v2h2v-2c0-.982.796-1.777 1.777-1.777zM9.778 22h-2c-.982 0-1.777.796-1.777 1.777v1.111h2v-1.111c0-.982.796-1.777 1.778-1.777zM24 22h-2c-.982 0-1.777.796-1.777 1.777v1.111h2v-1.111c0-.982.796-1.777 1.777-1.777z"/><path fill="#00b871" style="fill:var(--color4, #00b871)" d="M10.667 13.556V6h-2v7.556c0 .978.8 1.778 1.777 1.778h2c-.977 0-1.777-.8-1.777-1.777z"/><path style="fill:var(--color7, #000)" d="M6.889 5.333h18.222v1.333H6.889V5.333z"/><path style="fill:var(--color7, #000)" d="M21.555 16h-2v-1.333h2a1.112 1.112 0 0 0 1.111-1.111V6.667H9.332v6.889a1.112 1.112 0 0 0 1.111 1.111h2V16h-2a2.446 2.446 0 0 1-2.444-2.444V6c0-.368.299-.666.667-.667h14.666c.368 0 .666.298.667.666v7.556a2.447 2.447 0 0 1-2.445 2.444z"/><path style="fill:var(--color7, #000)" d="m13.138 13.137-.942-.942 2.223-2.222a.661.661 0 0 1 .805-.105l-.003-.002 1.132.647 2.53-2.335.905.98-2.889 2.666a.666.666 0 0 1-.783.089l-1.113-.636-1.863 1.861z"/><path style="fill:var(--color7, #000)" d="M20 11.556h-1.333V9.334h-2.223V8.001h2.889c.368 0 .667.299.667.667v2.889zm3.111 8.889a1.779 1.779 0 0 1-1.777-1.778 1.78 1.78 0 0 1 1.777-1.778 1.78 1.78 0 0 1 1.778 1.777 1.78 1.78 0 0 1-1.777 1.778zm0-2.223a.444.444 0 1 0 .001.89.444.444 0 1 0-.001-.89zm3.556 6.667h-1.334v-1.111a1.113 1.113 0 0 0-1.111-1.111h-2.889v-1.334h2.889a2.447 2.447 0 0 1 2.445 2.445v1.111zM8.889 20.445a1.78 1.78 0 0 1-1.778-1.778 1.78 1.78 0 0 1 1.777-1.778 1.78 1.78 0 0 1 1.778 1.777 1.78 1.78 0 0 1-1.778 1.778zm0-2.223a.445.445 0 1 0 0 .89.445.445 0 1 0 0-.89zm-2.222 6.667H5.334v-1.111a2.447 2.447 0 0 1 2.445-2.445h2.889v1.334H7.779a1.113 1.113 0 0 0-1.111 1.111v1.111zm9.333-4c-1.47 0-2.667-1.196-2.667-2.666S14.53 15.556 16 15.556c1.47 0 2.667 1.197 2.667 2.667S17.47 20.889 16 20.889zm0-4a1.335 1.335 0 0 0-1.333 1.333A1.335 1.335 0 0 0 16 19.555a1.335 1.335 0 0 0 1.333-1.333A1.336 1.336 0 0 0 16 16.888zm4.889 9.777h-1.333v-2a1.113 1.113 0 0 0-1.111-1.111h-4.889a1.113 1.113 0 0 0-1.111 1.111v2h-1.334v-2a2.446 2.446 0 0 1 2.444-2.444h4.889a2.447 2.447 0 0 1 2.444 2.445v2z"/><path style="fill:var(--color7, #000)" d="M1.778 25.333h28.445v1.334H1.778v-1.334z"/></symbol><symbol id="icon-You-will-not-get-icon" viewBox="0 0 32 32"><path fill="#efefef" style="fill:var(--color2, #efefef)" d="M28.296 24.554c0-6.148 3.185-10.371 3.185-13.333s-1.703-9.185-15.332-9.185c-13.63 0-15.63 8.371-15.63 11.629 0 15.26 27.778 21.778 27.778 10.889z"/><path fill="#a4afc1" style="fill:var(--color1, #a4afc1)" d="M23.555 11.556a1.335 1.335 0 0 1-1.333-1.333 1.335 1.335 0 0 1 1.333-1.333 1.336 1.336 0 0 1 1.334 1.333 1.335 1.335 0 0 1-1.333 1.333zm0-1.778a.445.445 0 1 0 .445.444c0-.245-.2-.444-.445-.444z"/><path fill="#f3f3f1" style="fill:var(--color5, #f3f3f1)" d="M18.889 22.445H6v-3.111a2.666 2.666 0 0 1 2.667-2.666h7.556a2.667 2.667 0 0 1 2.667 2.666v3.111zm-6.445-8.889a3.333 3.333 0 1 0-.001-6.665 3.333 3.333 0 0 0 .002 6.665z"/><path fill="#e8184a" style="fill:var(--color8, #e8184a)" d="M15.769 10.044c-1.511.231-2.436-1.378-2.436-1.378-1.565 1.457-3.546 1.422-4.213 1.36.098-1.751 1.547-3.138 3.325-3.138s3.236 1.396 3.324 3.155zM20.889 26a5.11 5.11 0 1 0 0-10.221 5.11 5.11 0 0 0 0 10.221z"/><path style="fill:var(--color7, #000)" opacity=".2" d="M17.778 20.889a5.11 5.11 0 0 1 4.111-5.011 5.11 5.11 0 1 0 0 10.023 5.112 5.112 0 0 1-4.111-5.012z"/><path fill="#d5dbe1" style="fill:var(--color6, #d5dbe1)" d="M10.667 16.667h-2A2.667 2.667 0 0 0 6 19.333v3.111h2v-3.111a2.666 2.666 0 0 1 2.667-2.666zm.444-6.445a3.32 3.32 0 0 1 2.334-3.163 3.282 3.282 0 0 0-1-.17 3.334 3.334 0 0 0 0 6.666c.351 0 .682-.069 1-.17a3.323 3.323 0 0 1-2.334-3.164z"/><path fill="#ba133b" style="fill:var(--color9, #ba133b)" d="M13.443 7.057a3.263 3.263 0 0 0-.998-.168 3.326 3.326 0 0 0-3.325 3.138 6.085 6.085 0 0 0 2.027-.18 3.31 3.31 0 0 1 2.295-2.789z"/><path style="fill:var(--color7, #000)" d="M15.465 10.734c-1.032 0-1.796-.617-2.246-1.116-1.676 1.188-3.57 1.129-4.162 1.072l.126-1.327c.519.049 2.313.106 3.696-1.184a.664.664 0 0 1 1.031.152l.002.003c.005.009.722 1.201 1.758 1.05l.202 1.317a2.718 2.718 0 0 1-.405.031z"/><path style="fill:var(--color7, #000)" d="M12.444 14.222c-2.205 0-4-1.795-4-4s1.794-4 4-4c2.205 0 4 1.795 4 4s-1.795 4-4 4zm0-6.666c-1.47 0-2.667 1.197-2.667 2.667s1.197 2.667 2.667 2.667c1.47 0 2.667-1.197 2.667-2.667s-1.196-2.667-2.666-2.667zm8.445 19.111c-3.186 0-5.778-2.592-5.778-5.778s2.592-5.777 5.777-5.777c3.186 0 5.778 2.592 5.778 5.777s-2.592 5.778-5.778 5.778zm0-10.223c-2.451 0-4.445 1.994-4.445 4.445s1.994 4.444 4.444 4.444 4.444-1.994 4.444-4.444-1.994-4.444-4.444-4.444z"/><path style="fill:var(--color7, #000)" d="m18.858 21.973 3.111-3.111.943.942-3.111 3.111-.943-.943z"/><path style="fill:var(--color7, #000)" d="m18.858 19.805.943-.943 3.111 3.111-.943.943-3.111-3.111zm-5.525 3.306H6a.667.667 0 0 1-.667-.666v-3.111a3.337 3.337 0 0 1 3.334-3.333h5.573v1.333H8.667c-1.103 0-2 .897-2 2v2.445h6.666v1.333z"/></symbol><symbol id="icon-You-will-get" viewBox="0 0 32 32"><path fill="#efefef" style="fill:var(--color2, #efefef)" d="M7.446 3.704c6.149 0 10.371-3.185 13.333-3.185s9.185 1.703 9.185 15.332c0 13.63-8.371 15.63-11.63 15.63C3.075 31.482-3.443 3.704 7.445 3.704z"/><path fill="#a4afc1" style="fill:var(--color1, #a4afc1)" d="m23.913 3.215.629-.628 1.257 1.257-.628.628-1.257-1.257zm3.614 3.614.628-.628 1.257 1.257-.629.628-1.257-1.257zm-.157-2.985 1.257-1.257.628.628-1.257 1.257-.629-.628z"/><path fill="#f3f3f1" style="fill:var(--color5, #f3f3f1)" d="M18.889 22.445H6v-3.111a2.666 2.666 0 0 1 2.667-2.666h7.556a2.667 2.667 0 0 1 2.667 2.666v3.111zm-6.445-8.889a3.333 3.333 0 1 0-.001-6.665 3.333 3.333 0 0 0 .002 6.665z"/><path fill="#2fdf84" style="fill:var(--color3, #2fdf84)" d="M15.769 10.044c-1.511.231-2.436-1.378-2.436-1.378-1.565 1.457-3.546 1.422-4.213 1.36.098-1.751 1.547-3.138 3.325-3.138s3.236 1.396 3.324 3.155zM20.889 26a5.11 5.11 0 1 0 0-10.221 5.11 5.11 0 0 0 0 10.221z"/><path fill="#00b871" style="fill:var(--color4, #00b871)" d="M17.778 20.889a5.11 5.11 0 0 1 4.111-5.011 5.11 5.11 0 1 0 0 10.023 5.112 5.112 0 0 1-4.111-5.012z"/><path fill="#d5dbe1" style="fill:var(--color6, #d5dbe1)" d="M10.667 16.666h-2A2.667 2.667 0 0 0 6 19.333v3.111h2v-3.111a2.666 2.666 0 0 1 2.667-2.666zm.444-6.444a3.32 3.32 0 0 1 2.334-3.163 3.282 3.282 0 0 0-1-.17 3.334 3.334 0 0 0 0 6.666c.351 0 .682-.069 1-.17a3.323 3.323 0 0 1-2.334-3.164z"/><path fill="#00b871" style="fill:var(--color4, #00b871)" d="M13.443 7.057a3.263 3.263 0 0 0-.998-.168 3.326 3.326 0 0 0-3.325 3.138 6.085 6.085 0 0 0 2.027-.18 3.31 3.31 0 0 1 2.295-2.789z"/><path style="fill:var(--color7, #000)" d="M15.465 10.734c-1.032 0-1.796-.617-2.246-1.116-1.678 1.189-3.575 1.126-4.161 1.072l.124-1.327c.517.049 2.313.107 3.697-1.184a.668.668 0 0 1 1.032.152l.002.003c.005.009.722 1.201 1.758 1.051l.201 1.318c-.14.021-.275.031-.406.031z"/><path style="fill:var(--color7, #000)" d="M12.444 14.222c-2.205 0-4-1.795-4-4s1.794-4 4-4c2.205 0 4 1.795 4 4s-1.795 4-4 4zm0-6.666c-1.47 0-2.667 1.197-2.667 2.667s1.197 2.667 2.667 2.667c1.47 0 2.667-1.197 2.667-2.667s-1.196-2.667-2.666-2.667zm8.445 19.111c-3.186 0-5.778-2.592-5.778-5.778s2.592-5.777 5.777-5.777c3.186 0 5.778 2.592 5.778 5.777s-2.592 5.778-5.778 5.778zm0-10.223c-2.451 0-4.445 1.994-4.445 4.445s1.994 4.444 4.444 4.444 4.444-1.994 4.444-4.444-1.994-4.444-4.444-4.444z"/><path style="fill:var(--color7, #000)" d="M20 23.111a.663.663 0 0 1-.471-.195l-1.777-1.777.943-.943 1.274 1.274 2.642-3.019 1.003.878-3.111 3.555a.665.665 0 0 1-.479.227h-.001l-.022.001zm-6.667 0H6a.667.667 0 0 1-.667-.666v-3.111a3.337 3.337 0 0 1 3.334-3.333h5.573v1.333H8.667c-1.103 0-2 .897-2 2v2.445h6.666v1.333z"/></symbol><symbol id="icon-Subtract" viewBox="0 0 27 32"><path fill="#18e8a4" style="fill:var(--color10, #18e8a4)" d="M15.164.761C14.701.291 14.057 0 13.345 0s-1.356.291-1.819.761L6.069 6.274a2.617 2.617 0 0 0 0 3.675l5.457 5.514c.463.47 1.107.761 1.819.761s1.356-.291 1.819-.761l2.308-2.332-1.663-1.658a3.707 3.707 0 0 1-2.159.671h-.011c-.531 0-1.036-.11-1.493-.31l.024.009c-.471-.2-.877-.471-1.218-.811s-.612-.747-.812-1.218a3.682 3.682 0 0 1-.301-1.47v-.011.001c0-.516.1-1.009.301-1.48s.471-.877.812-1.218c.341-.341.747-.611 1.218-.811s.964-.301 1.48-.301 1.009.1 1.48.301c.471.2.876.471 1.217.811s.612.747.812 1.218c.2.471.301.964.301 1.48 0 .794-.224 1.513-.671 2.159l1.656 1.656 2.178-2.2a2.617 2.617 0 0 0 0-3.675L15.166.761zm.91 7.574c0 .668-.238 1.239-.714 1.716-.473.473-1.043.709-1.71.709s-1.238-.237-1.713-.712c-.475-.474-.711-1.045-.711-1.713s.237-1.238.711-1.713c.475-.474 1.045-.711 1.713-.711s1.238.237 1.713.711c.475.474.712 1.045.712 1.713z"/></symbol><symbol id="icon-menu" viewBox="0 0 32 32"><path d="M5.333 5.333h21.333V8H5.333V5.333zm0 9.334h21.333v2.667H5.333v-2.667zM26.667 24H5.334v2.667h21.333V24z"/></symbol><symbol id="icon-Contact" viewBox="0 0 32 32"><path d="M26.667 20.667c-1.667 0-3.267-.267-4.76-.76a1.357 1.357 0 0 0-1.361.32l-2.933 2.933c-3.799-1.961-6.82-4.978-8.734-8.662l-.053-.112 2.933-2.947c.373-.36.48-.88.333-1.347-.482-1.414-.76-3.044-.76-4.738V5.33v.001c0-.733-.6-1.333-1.333-1.333H5.332c-.733 0-1.333.6-1.333 1.333 0 12.52 10.147 22.667 22.667 22.667.733 0 1.333-.6 1.333-1.333v-4.667c0-.733-.6-1.333-1.333-1.333zM16 4v13.333l4-4h8V4H16z"/></symbol><symbol id="icon-freysoft-fullcolor-logo" viewBox="0 0 112 32"><path fill="#fff" style="fill:var(--color11, #fff)" d="M37.644 12.43v1.452h4.841v2.623h-4.841v4.261h-3.025V9.655h8.202v2.778l-5.177-.003zm15.208 8.332h-3.116c-.137-.297-.198-.638-.212-1.122l-.047-1.264c-.047-1.263-.62-1.452-1.466-1.452h-1.574v3.838h-3.026V9.651h5.296c2.936 0 4.009 1.56 4.009 3.29 0 1.078-.529 2.078-1.679 2.609 1.257.482 1.438 1.419 1.484 2.604l.061 1.482c.015.468.119.858.271 1.126zm-4.601-6.118c.894 0 1.347-.468 1.347-1.278 0-.795-.454-1.282-1.347-1.282h-1.815v2.56h1.815zm8.343-2.214v1.467h4.993v2.59h-4.993v1.497h5.479v2.778h-8.505V9.651h8.505v2.778h-5.479zm16.873-2.779-3.948 6.836v4.276h-3.026v-4.276l-4.009-6.835h3.404l.695 1.247c.501.907.998 1.81 1.484 2.716a62.712 62.712 0 0 1 1.619-3.114l-.196.384.666-1.234h3.31zm-.706 7.459h2.907c.029 1.311.862 1.531 2.028 1.531 1.03 0 1.513-.376 1.513-.999 0-.639-.378-.858-1.697-1.077l-.847-.141c-2.435-.405-3.739-1.575-3.739-3.589 0-1.92 1.395-3.432 4.42-3.432 2.846 0 4.478 1.233 4.6 3.666H79.1c-.047-.873-.529-1.296-1.711-1.296-.955 0-1.376.342-1.376.921 0 .673.501.907 1.574 1.092l.894.156c2.633.454 3.843 1.483 3.843 3.466 0 2.482-1.938 3.604-4.751 3.604-3.253 0-4.813-1.623-4.813-3.901zm9.643-1.906c0-3.543 2.302-5.806 5.658-5.806 3.343 0 5.659 2.263 5.659 5.807s-2.316 5.806-5.659 5.806c-3.357 0-5.658-2.262-5.658-5.806zm8.169 0c0-1.964-.998-3.105-2.511-3.105s-2.51 1.14-2.51 3.106c0 1.98.998 3.106 2.51 3.106s2.511-1.122 2.511-3.106zm6.877-2.774v1.452h4.841v2.623H97.45v4.261h-3.026V9.655h8.202v2.778l-5.176-.003zm14.959 0h-3.177v8.332h-3.026V12.43h-3.177V9.652h9.38v2.778z"/><path fill="#18e8a4" style="fill:var(--color10, #18e8a4)" d="M0 15.13 14.567.508l14.567 14.624-14.567 14.623L0 15.13z"/><path fill="#020213" style="fill:var(--color12, #020213)" d="m25.086 15.083-1.995-2.01-7.057 7.114v-4.016l5.066-5.104-1.991-2.006-3.074 3.097V6.55h-2.818v5.608l-3.074-3.097-1.995 2.006 5.069 5.104v15.263h2.818v-7.232l9.052-9.119z"/></symbol></defs></svg>